<?xml version="1.0" encoding="UTF-8" standalone="no"?>
<!DOCTYPE svg PUBLIC "-//W3C//DTD SVG 1.1//EN" "http://www.w3.org/Graphics/SVG/1.1/DTD/svg11.dtd">
<svg width="100%" height="100%" viewBox="0 0 1080 1080" version="1.1" xmlns="http://www.w3.org/2000/svg" xmlns:xlink="http://www.w3.org/1999/xlink" xml:space="preserve" xmlns:serif="http://www.serif.com/" style="fill-rule:evenodd;clip-rule:evenodd;stroke-miterlimit:10;">
    <g transform="matrix(0.577851,0,0,0.577846,-2861.97,-4642.85)">
        <g>
            <path d="M5054.88,8969.25C5054.88,8509.52 5427.56,8136.85 5887.28,8136.85C6347.01,8136.85 6719.67,8509.52 6719.67,8969.25C6719.67,9428.98 6347.01,9801.66 5887.28,9801.66C5427.56,9801.66 5054.88,9428.98 5054.88,8969.25Z" style="fill:none;stroke:white;stroke-width:37.53px;"/>
            <path d="M5343.91,8967.28C5343.91,8668.62 5586.29,8426.51 5885.3,8426.51C6184.29,8426.51 6426.67,8668.62 6426.67,8967.28C6426.67,9265.91 6184.29,9508.03 5885.3,9508.03C5586.29,9508.03 5343.91,9265.91 5343.91,8967.28Z" style="fill:none;stroke:white;stroke-width:37.53px;"/>
            <path d="M6267.57,8712.74C6316.98,8786.12 6345.82,8874.46 6345.82,8969.53C6345.82,9179.16 6205.65,9356.1 6013.82,9411.94L6013.82,8843.74L6121.23,8791.16L6121.23,9238.62C6121.23,9238.62 6233.72,9162.26 6244.84,8980.03C6253.41,8839.45 6179.33,8760.01 6179.33,8760.01L6267.57,8712.74Z" style="fill:white;"/>
            <path d="M5570.2,8632.33C5652.58,8555.69 5763.07,8508.8 5884.54,8508.8C6013.37,8508.8 6129.85,8561.54 6213.54,8646.6L6131,8705.29C6131,8705.29 6078.12,8658.18 6035.25,8639.87C5992.39,8621.56 5956.91,8613 5956.91,8613L5956.91,9422.91C5956.91,9422.91 5920.27,9429.77 5884.39,9430.35C5848.5,9430.92 5841.05,9431.5 5841.05,9431.5L5841.05,8613C5841.05,8613 5787.44,8611.94 5719.02,8648.51C5650.6,8685.06 5637.82,8704.24 5637.82,8704.24L5570.2,8632.33Z" style="fill:white;"/>
            <path d="M5720.62,8942.96L5800.4,8890.42C5800.4,8890.42 5741.4,8778.97 5695.21,8750.39C5649,8721.8 5518.39,8683.63 5457.8,8809.31C5397.21,8934.97 5590.17,9052.83 5628.38,9081.41C5666.59,9109.99 5772.1,9205.7 5700,9266C5641.01,9315.33 5545.41,9092.57 5545.41,9092.57L5462.59,9143.52C5462.59,9143.52 5534.38,9386.72 5704.8,9377.3C5793.06,9372.43 5831.43,9284.01 5819,9198.7C5807.42,9119.28 5750.54,9044.5 5682.24,8992.31C5682.24,8992.31 5510.57,8882.45 5566.19,8834.7C5634.61,8775.93 5720.62,8942.96 5720.62,8942.96Z" style="fill:white;"/>
            <path d="M5270.76,8750.57C5304.55,8766.78 5332.93,8745.26 5347.15,8714.8C5364.61,8677.39 5354.97,8648.72 5329.68,8636.95C5298.41,8622.38 5277.64,8650.27 5270.45,8659.12C5245.45,8689.5 5241.04,8695.43 5230.42,8690.48C5218.85,8685.08 5220,8672.01 5224.51,8662.38C5231.26,8647.92 5241,8638.13 5258.05,8644.9L5271.73,8615.59C5239.89,8600.76 5215.01,8621.33 5201.6,8650.06C5189.98,8674.93 5191.08,8707.83 5219.24,8720.95C5245.12,8733 5262.67,8716.05 5277.61,8698.13C5292.47,8680.41 5304.61,8660.95 5319.48,8667.87C5333.56,8674.43 5329.08,8692.07 5324.14,8702.67C5316.58,8718.86 5302.78,8729.81 5284.44,8721.26L5270.76,8750.57Z" style="fill:white;"/>
            <path d="M5382.63,8637.55L5261.18,8546.14L5302.46,8491.43C5325.27,8461.2 5353.34,8463.94 5373.07,8478.79C5392.79,8493.64 5403.18,8519.83 5380.36,8550.07L5359.21,8578.1L5402.75,8610.88L5382.63,8637.55ZM5302.06,8535.08L5338.45,8562.48L5354.09,8541.76C5363.45,8529.35 5369.06,8516.27 5353.58,8504.61C5338.1,8492.96 5327.05,8501.96 5317.69,8514.36L5302.06,8535.08Z" style="fill:white;"/>
            <path d="M5422.86,8469.24C5395.69,8433.22 5396.64,8388.55 5434.24,8360.26C5471.83,8331.96 5515.09,8343.35 5542.27,8379.37C5568.67,8414.36 5567.7,8459.04 5530.11,8487.33C5492.52,8515.63 5449.27,8504.24 5422.86,8469.24ZM5449.57,8449.15C5464.82,8469.35 5489.22,8482.96 5513.2,8464.91C5537.18,8446.85 5530.81,8419.67 5515.56,8399.46C5499.54,8378.23 5475.14,8364.63 5451.16,8382.67C5427.17,8400.73 5433.54,8427.9 5449.57,8449.15Z" style="fill:white;"/>
            <path d="M5610.81,8428.41L5553.85,8287.58L5629.87,8256.9C5655.15,8246.7 5678.25,8257.79 5686.85,8279.1C5693.56,8295.66 5691.87,8310.8 5678.82,8323.41L5678.98,8323.8C5695.8,8321.6 5706.12,8334.66 5712.84,8348.46C5717.03,8357.09 5723.53,8373.74 5732.25,8379.4L5701.25,8391.91C5693.9,8384.54 5688.8,8370.78 5682.67,8360.17C5674.52,8346.26 5666.16,8342.06 5650.55,8348.35L5619.55,8360.87L5641.81,8415.89L5610.81,8428.41ZM5594.57,8299.12L5610.61,8338.77L5644.58,8325.07C5658.41,8319.49 5663.52,8310.55 5657.77,8296.33C5652.26,8282.73 5642.37,8279.84 5628.55,8285.42L5594.57,8299.12Z" style="fill:white;"/>
            <path d="M5786.9,8371.54L5820.01,8366.89L5802.76,8244.29L5847.89,8237.95L5843.98,8210.14L5720.6,8227.46L5724.51,8255.27L5769.64,8248.93L5786.9,8371.54Z" style="fill:white;"/>
            <path d="M6018.91,8220.25L5984.55,8217.24L5941.07,8320.64L5940.64,8320.6L5916.22,8211.27L5881.85,8208.27L5917.82,8363.88L5955.38,8367.16L6018.91,8220.25Z" style="fill:white;"/>
            <path d="M6020.39,8375.83L6130.18,8411.46L6138.87,8384.76L6060.88,8359.45L6072.41,8324.04L6142.48,8346.79L6150.51,8322.1L6080.44,8299.36L6090.5,8268.41L6166.87,8293.19L6175.55,8266.48L6067.39,8231.38L6020.39,8375.83Z" style="fill:white;"/>
            <path d="M6152.59,8422.49L6233.17,8293.68L6302.71,8337.08C6325.82,8351.51 6330.41,8376.7 6318.23,8396.18C6308.74,8411.33 6295.5,8418.87 6277.61,8415.75L6277.39,8416.09C6289.04,8428.38 6284.55,8444.4 6277.32,8457.94C6272.79,8466.4 6263.13,8481.45 6263.67,8491.82L6235.31,8474.12C6236.96,8463.86 6245.11,8451.64 6250.1,8440.46C6256.58,8425.68 6255.06,8416.45 6240.8,8407.55L6212.44,8389.85L6180.94,8440.18L6152.59,8422.49ZM6247.75,8333.4L6225.07,8369.64L6256.14,8389.03C6268.79,8396.94 6279.04,8395.8 6287.16,8382.82C6294.94,8370.37 6291.48,8360.67 6278.82,8352.78L6247.75,8333.4Z" style="fill:white;"/>
            <path d="M6282.48,8508.96L6361.21,8593.28L6381.76,8574.14L6325.85,8514.23L6353.1,8488.85L6403.36,8542.68L6422.35,8524.98L6372.1,8471.15L6395.93,8448.95L6450.69,8507.6L6471.25,8488.45L6393.7,8405.37L6282.48,8508.96Z" style="fill:white;"/>
            <path d="M6373.84,8613.78L6392.06,8641.79L6519.58,8559.06L6501.38,8531.06L6373.84,8613.78Z" style="fill:white;"/>
            <path d="M6410.77,8666.79L6423.5,8695.36L6516.5,8654L6516.68,8654.39L6449.4,8753.47L6463.01,8783.98L6601.92,8722.2L6589.18,8693.63L6495.99,8735.08L6495.82,8734.69L6563.2,8635.33L6549.69,8605.01L6410.77,8666.79Z" style="fill:white;"/>
            <path d="M5180.62,9267.52L5194.22,9298.03L5307.46,9247.67L5326,9289.26L5351.68,9277.85L5301.01,9164.16L5275.32,9175.57L5293.86,9217.16L5180.62,9267.52Z" style="fill:white;"/>
            <path d="M5244.6,9392.04L5315.66,9482.89L5337.82,9465.61L5287.34,9401.06L5316.71,9378.15L5362.08,9436.16L5382.55,9420.17L5337.18,9362.17L5362.86,9342.13L5412.29,9405.34L5434.44,9388.04L5364.43,9298.52L5244.6,9392.04Z" style="fill:white;"/>
            <path d="M5359.17,9528.69L5383.49,9548.37L5447.57,9469.35L5447.9,9469.62L5432.99,9588.4L5458.97,9609.43L5554.67,9491.39L5530.34,9471.71L5466.14,9550.89L5465.8,9550.62L5480.69,9431.54L5454.87,9410.65L5359.17,9528.69Z" style="fill:white;"/>
            <path d="M5532.45,9651.48L5561.48,9663.21L5599.62,9568.92L5600.02,9569.08L5620.53,9687.03L5651.53,9699.55L5708.49,9558.72L5679.46,9547L5641.25,9641.48L5640.86,9641.31L5620.22,9523.09L5589.42,9510.66L5532.45,9651.48Z" style="fill:white;"/>
            <path d="M5722.63,9718.4L5836.94,9734.44L5840.86,9706.64L5759.66,9695.24L5764.84,9658.37L5837.82,9668.62L5841.43,9642.92L5768.46,9632.67L5772.99,9600.44L5852.51,9611.6L5856.42,9583.79L5743.8,9567.99L5722.63,9718.4Z" style="fill:white;"/>
            <path d="M5903.74,9736.32L5934.88,9733.05L5924.23,9631.92L5924.66,9631.87L5998.21,9726.4L6031.47,9722.91L6015.57,9571.85L5984.44,9575.12L5995.1,9676.46L5994.68,9676.5L5920.88,9581.79L5887.84,9585.26L5903.74,9736.32Z" style="fill:white;"/>
            <path d="M6105.96,9702.68L6206.36,9664.18L6196.28,9637.96L6127.1,9664.49L6082.67,9548.91L6051.45,9560.87L6105.96,9702.68Z" style="fill:white;"/>
            <path d="M6214.27,9579.31C6188.36,9542.36 6190.89,9497.74 6229.45,9470.77C6268,9443.82 6310.83,9456.7 6336.74,9493.64C6361.91,9529.55 6359.39,9574.15 6320.82,9601.12C6282.27,9628.09 6239.44,9615.2 6214.27,9579.31ZM6241.66,9560.14C6256.19,9580.89 6280.1,9595.32 6304.7,9578.13C6329.31,9560.92 6323.88,9533.53 6309.35,9512.81C6294.08,9491.03 6270.17,9476.58 6245.57,9493.78C6220.97,9510.99 6226.39,9538.36 6241.66,9560.14Z" style="fill:white;"/>
            <path d="M6434.82,9505.28L6455.86,9479.33L6404.88,9438.09L6443.62,9390.32L6494.6,9431.55L6515.64,9405.6L6397.46,9310.01L6376.41,9335.96L6421.77,9372.65L6383.03,9420.42L6337.69,9383.75L6316.64,9409.7L6434.82,9505.28Z" style="fill:white;"/>
            <path d="M6553.98,9343.05L6602.77,9238.55L6577.29,9226.68L6542.63,9300.91L6508.85,9285.18L6539.99,9218.47L6516.45,9207.5L6485.3,9274.21L6455.77,9260.45L6489.7,9187.76L6464.23,9175.9L6416.15,9278.85L6553.98,9343.05Z" style="fill:white;"/>
            <path d="M5168.18,8912.48L5144.11,8912.48C5140.91,8935.25 5121.52,8942.5 5100.43,8942.08L5100.43,8964.85L5137.93,8964.85L5137.93,9061.45L5168.18,9061.45L5168.18,8912.48Z" style="fill:white;"/>
            <path d="M5193.02,9023.14L5221.79,9023.14C5223.71,9033.14 5231.37,9041.67 5241.81,9041.67C5263.76,9041.67 5269.51,9012.93 5270.36,8996.34L5269.93,8995.91C5261.63,9007.61 5250.77,9012.51 5236.27,9012.51C5223.49,9012.51 5210.5,9006.55 5201.98,8997.18C5194.09,8988.04 5190.47,8975.68 5190.47,8963.99C5190.47,8933.56 5211.56,8909.52 5242.67,8909.52C5287.83,8909.52 5299.97,8948.89 5299.97,8986.55C5299.97,9022.92 5283.78,9064.44 5241.38,9064.44C5215.61,9064.44 5196.43,9049.32 5193.02,9023.14ZM5243.52,8989.74C5259.71,8989.74 5267.59,8976.76 5267.59,8962.08C5267.59,8948.23 5258.64,8934.42 5243.52,8934.42C5229.03,8934.42 5220.72,8948.23 5220.72,8961.66C5220.72,8975.68 5227.96,8989.74 5243.52,8989.74Z" style="fill:white;"/>
            <path d="M6563.33,8912.48L6480.03,8912.48L6465.33,8994.84L6492.59,8994.84C6498.56,8986.76 6504.53,8982.93 6515.39,8982.93C6531.58,8982.93 6541.17,8995.26 6541.17,9010.81C6541.17,9025.71 6531.15,9039.53 6515.39,9039.53C6502.18,9039.53 6492.39,9030.39 6490.9,9017.19L6460.63,9017.19C6461.07,9048.47 6487.06,9064.43 6516.03,9064.43C6546.06,9065.07 6571.43,9041.46 6571.43,9010.81C6571.43,8982.93 6554.8,8960.16 6525.41,8960.16C6513.69,8960.16 6504.32,8963.36 6496.22,8971.66L6495.8,8971.22L6501.76,8937.39L6563.33,8937.39L6563.33,8912.48Z" style="fill:white;"/>
            <path d="M6579.65,8986.34C6579.65,8928.24 6604.79,8909.52 6634.19,8909.52C6664.02,8909.52 6689.15,8928.24 6689.15,8986.34C6689.15,9045.71 6664.02,9064.44 6634.19,9064.44C6604.79,9064.44 6579.65,9045.71 6579.65,8986.34ZM6609.9,8986.34C6609.9,9003.14 6609.9,9039.53 6634.19,9039.53C6658.9,9039.53 6658.9,9003.14 6658.9,8986.34C6658.9,8970.8 6658.9,8934.42 6634.19,8934.42C6609.9,8934.42 6609.9,8970.8 6609.9,8986.34Z" style="fill:white;"/>
        </g>
    </g>
</svg>
